<svg width="1596" height="933" viewBox="0 0 1596 933" fill="none" xmlns="http://www.w3.org/2000/svg">
<path d="M758 796.657V41C758 37.6863 760.686 35 764 35H829C832.314 35 835 37.6863 835 41V796.763C835 797.898 834.678 799.009 834.072 799.969L808.428 840.531C807.822 841.491 807.5 842.602 807.5 843.737V865.5C807.5 868.814 804.814 871.5 801.5 871.5H793.5C790.186 871.5 787.5 868.814 787.5 865.5V843.843C787.5 842.642 787.14 841.469 786.466 840.475L759.034 800.025C758.36 799.031 758 797.858 758 796.657Z" fill="currentColor"/>
<path d="M767 0V35.5H826.5V0H767Z" fill="currentColor"/>
<path d="M1051.29 626.709L821.758 559.681C818.345 558.685 816 555.557 816 552.002V548.5C816 544.082 819.582 540.5 824 540.5H836.049C838.817 540.5 841.388 539.07 842.847 536.718L945.846 370.751C949.447 364.948 958.194 366.035 960.266 372.543L1000.91 500.234C1002.63 505.629 1009.26 507.582 1013.62 503.982L1239.53 317.834C1245.04 313.294 1253.29 317.696 1252.58 324.8L1227.58 576.142C1226.85 583.452 1235.53 587.795 1240.94 582.829L1557.1 292.731C1563.85 286.542 1574.02 294.698 1569.44 302.626L1235.03 881.72C1234.35 882.888 1233.39 883.866 1232.24 884.564L1192.03 908.887C1184.37 913.524 1176.04 903.983 1181.67 897.014L1210.22 861.674C1212.46 858.905 1212.6 854.991 1210.56 852.071L1055.61 629.814C1054.57 628.316 1053.04 627.221 1051.29 626.709Z" fill="currentColor"/>
<path d="M544.207 626.709L773.742 559.681C777.155 558.685 779.5 555.557 779.5 552.002V548.5C779.5 544.082 775.918 540.5 771.5 540.5H759.451C756.683 540.5 754.112 539.07 752.653 536.718L649.654 370.751C646.053 364.948 637.306 366.035 635.234 372.543L594.586 500.234C592.869 505.629 586.245 507.582 581.876 503.982L355.968 317.834C350.459 313.294 342.213 317.696 342.92 324.8L367.925 576.142C368.652 583.452 359.968 587.795 354.556 582.829L38.3956 292.731C31.6506 286.542 21.4812 294.698 26.059 302.626L360.472 881.72C361.146 882.888 362.105 883.866 363.259 884.564L403.466 908.887C411.131 913.524 419.46 903.983 413.829 897.014L385.276 861.674C383.039 858.905 382.901 854.991 384.936 852.071L539.887 629.814C540.931 628.316 542.455 627.221 544.207 626.709Z" fill="currentColor"/>
</svg>
